#!OML:ASF F:\VICON\USERDATA\Patient Classification 1\PLAYGROUND\JustinFriday\JustinFriday.ASF
:FULLY-SPECIFIED
:DEGREES
3224
root 13.3172 26.5634 39.9729 -696.687 -176.919 3.97264
lowerback 21.3385 3.48036 -0.455209
upperback -2.76511 4.66109 1.13416
thorax -15.3752 2.18358 -0.0251022
lowerneck 4.62655 -5.83594 1.44428
upperneck -11.5203 -7.42753 5.77523
head -4.46562 -4.15459 2.09977
rclavicle -6.71892e-014 -3.37934e-014
rhumerus 129.664 -34.8479 -81.4387
rradius 106.592
rwrist 10.2415
rhand -31.8707 -19.0838
rfingers 7.12502
rthumb -5.12387 -409.002
lclavicle -6.71892e-014 -3.37934e-014
lhumerus 128.196 12.5469 84.0315
lradius 107.34
lwrist -28.4798
lhand -13.3534 1.10462
lfingers 7.12502
lthumb 12.7525 30.6952
rfemur -13.0174 4.86656 25.1195
rtibia 29.5189
rfoot -39.8238 -11.195
rtoes 5.18543
lfemur -11.9302 2.61927 -13.712
ltibia 29.2416
lfoot -37.2376 0.245829
ltoes -3.5157
3225
root 13.3183 26.5607 39.9658 -696.767 -176.933 3.98661
lowerback 21.4116 3.52112 -0.511851
upperback -2.75086 4.70139 1.14914
thorax -15.4089 2.2062 0.00654694
lowerneck 4.77719 -5.88721 1.56731
upperneck -11.6844 -7.48627 5.69731
head -4.56297 -4.19022 2.07023
rclavicle 2.52457e-014 -1.23246e-014
rhumerus 129.513 -34.3362 -81.5435
rradius 106.887
rwrist 10.4135
rhand -31.5809 -18.7201
rfingers 7.12502
rthumb -4.84409 -408.645
lclavicle 2.52457e-014 -1.23246e-014
lhumerus 128.259 12.4336 84.1075
lradius 107.328
lwrist -28.4411
lhand -13.3602 1.05451
lfingers 7.12502
lthumb 12.7459 30.6455
rfemur -12.9357 4.91766 25.143
rtibia 29.5799
rfoot -39.7659 -11.3228
rtoes 5.01888
lfemur -11.8106 2.64183 -13.6984
ltibia 29.1914
lfoot -37.0404 0.28871
ltoes -4.18984
3226
root 13.3181 26.5627 39.9575 -696.785 -176.933 4.02756
lowerback 21.403 3.55789 -0.5225
upperback -2.75766 4.7507 1.16878
thorax -15.4159 2.23031 0.0183057
lowerneck 4.90799 -5.96929 1.70294
upperneck -11.8076 -7.58726 5.59613
head -4.64226 -4.24388 2.03002
rclavicle -2.14687e-014 -2.26615e-014
rhumerus 128.771 -32.911 -81.7152
rradius 107.907
rwrist 10.9673
rhand -30.7614 -17.7406
rfingers 7.12502
rthumb -4.05277 -407.682
lclavicle -2.14687e-014 -2.26615e-014
lhumerus 128.297 12.3144 84.1853
lradius 107.322
lwrist -28.3897
lhand -13.2831 1.03781
lfingers 7.12502
lthumb 12.8203 30.6241
rfemur -12.9349 4.91598 25.1911
rtibia 29.6349
rfoot -39.6656 -11.4311
rtoes 5.12112
lfemur -11.7719 2.64038 -13.6564
ltibia 29.1442
lfoot -36.7806 0.415064
ltoes -4.99514
3227
root 13.3197 26.5686 39.9488 -696.752 -176.982 4.03353
lowerback 21.3389 3.61955 -0.61297
upperback -2.75896 4.81111 1.17787
thorax -15.3895 2.26689 0.0625554
lowerneck 4.94851 -6.02323 1.80972
upperneck -12.3669 -7.62591 5.68582
head -4.36178 -4.30192 1.84941
rclavicle -1.59028e-014 8.74653e-015
rhumerus 128.733 -33.0204 -81.7269
rradius 108.015
rwrist 10.9651
rhand -30.7088 -17.864
rfingers 7.12502
rthumb -4.00197 -407.806
lclavicle -1.59028e-014 8.74653e-015
lhumerus 128.384 12.1822 84.2509
lradius 107.297
lwrist -28.3709
lhand -13.2222 0.997513
lfingers 7.12502
lthumb 12.879 30.5801
rfemur -13.0136 4.88438 25.1875
rtibia 29.667
rfoot -39.6629 -11.4045
rtoes 7.51287
lfemur -11.7656 2.60733 -13.6655
ltibia 29.1058
lfoot -36.6347 0.476115
ltoes -4.75852
3228
root 13.322 26.5738 39.9438 -696.76 -177.022 3.9474
lowerback 21.4059 3.69007 -0.795361
upperback -2.75401 4.85621 1.17269
thorax -15.4407 2.30202 0.140111
lowerneck 4.94861 -6.05638 1.91292
upperneck -12.5753 -7.67159 5.63597
head -4.43121 -4.33523 1.82687
rclavicle -4.9895e-014 -3.37934e-014
rhumerus 129.956 -34.6395 -81.5788
rradius 106.641
rwrist 10.3574
rhand -31.5156 -18.8372
rfingers 7.12502
rthumb -4.78097 -408.763
lclavicle -4.9895e-014 -3.37934e-014
lhumerus 128.432 11.993 84.3277
lradius 107.31
lwrist -28.4261
lhand -13.2835 0.8582
lfingers 7.12502
lthumb 12.8199 30.4445
rfemur -13.0219 4.8821 25.0997
rtibia 29.6627
rfoot -39.5941 -11.5699
rtoes 5.29789
lfemur -11.7349 2.43343 -13.7664
ltibia 29.0948
lfoot -36.5857 0.658006
ltoes -4.14001
3229
root 13.321 26.5731 39.9425 -696.817 -176.957 3.89383
lowerback 21.5235 3.72268 -0.854553
upperback -2.7519 4.88482 1.1865
thorax -15.5159 2.31897 0.172572
lowerneck 4.96295 -6.09763 2.03079
upperneck -12.699 -7.72986 5.51856
head -4.48035 -4.36683 1.78024
rclavicle 2.62396e-014 3.10104e-014
rhumerus 130.3 -35.2465 -81.4723
rradius 106.179
rwrist 10.1811
rhand -31.8949 -19.0774
rfingers 7.12502
rthumb -5.14723 -408.995
lclavicle 2.62396e-014 3.10104e-014
lhumerus 128.449 11.7988 84.4467
lradius 107.335
lwrist -28.5183
lhand -13.2708 0.68827
lfingers 7.12502
lthumb 12.8322 30.2738
rfemur -12.9287 4.86739 25.0752
rtibia 29.6377
rfoot -39.4436 -11.7539
rtoes 4.56257
lfemur -11.6846 2.27637 -13.7948
ltibia 29.1146
lfoot -36.5974 0.823801
ltoes -4.08543
3230
root 13.3194 26.5707 39.942 -696.82 -176.876 3.9402
lowerback 21.5151 3.73699 -0.800043
upperback -2.76 4.92285 1.21727
thorax -15.5198 2.33277 0.16412
lowerneck 4.93426 -6.11795 2.18172
upperneck -12.7044 -7.76688 5.30554
head -4.49183 -4.37827 1.69333
rclavicle -5.10877e-014 -1.59028e-014
rhumerus 130.294 -35.326 -81.4216
rradius 106.152
rwrist 10.3156
rhand -31.9113 -19.177
rfingers 7.12502
rthumb -5.16309 -409.094
lclavicle -5.10877e-014 -1.59028e-014
lhumerus 128.478 11.6505 84.5518
lradius 107.341
lwrist -28.5738
lhand -13.1504 0.620123
lfingers 7.12502
lthumb 12.9482 30.1984
rfemur -12.8903 4.84639 25.1489
rtibia 29.5977
rfoot -39.3816 -11.868
rtoes 4.04159
lfemur -11.7032 2.22743 -13.7092
ltibia 29.1665
lfoot -36.629 0.714309
ltoes -3.85629
3231
root 13.32 26.5722 39.9416 -696.794 -176.914 4.01483
lowerback 21.4627 3.78338 -0.764592
upperback -2.76597 4.99668 1.23046
thorax -15.4957 2.36404 0.136566
lowerneck 4.83584 -6.13087 2.30625
upperneck -12.579 -7.80052 5.06742
head -4.45148 -4.37996 1.59628
rclavicle 1.15295e-014 -5.96354e-015
rhumerus 130.324 -35.3851 -81.3962
rradius 106.149
rwrist 10.4684
rhand -31.8377 -19.3783
rfingers 7.12502
rthumb -5.09202 -409.297
lclavicle 1.15295e-014 -5.96354e-015
lhumerus 128.5 11.5204 84.593
lradius 107.339
lwrist -28.5628
lhand -13.1265 0.637729
lfingers 7.12502
lthumb 12.9713 30.2145
rfemur -12.9075 4.82159 25.2055
rtibia 29.5699
rfoot -39.3409 -11.8736
rtoes 3.92098
lfemur -11.75 2.25636 -13.6464
ltibia 29.2156
lfoot -36.6015 0.650775
ltoes -3.99562
3232
root 13.3216 26.5746 39.9431 -696.802 -176.938 4.04523
lowerback 21.4332 3.82325 -0.769868
upperback -2.75429 5.04902 1.23723
thorax -15.4665 2.38866 0.131414
lowerneck 4.86178 -6.16371 2.38149
upperneck -12.4989 -7.84566 4.935
head -4.43937 -4.39281 1.54546
rclavicle 2.46493e-014 2.74323e-014
rhumerus 130.364 -35.3861 -81.3821
rradius 106.136
rwrist 10.4243
rhand -31.8373 -19.2823
rfingers 7.12502
rthumb -5.09162 -409.201
lclavicle 2.46493e-014 2.74323e-014
lhumerus 128.507 11.3996 84.6211
lradius 107.374
lwrist -28.6243
lhand -13.1427 0.621054
lfingers 7.12502
lthumb 12.9556 30.1988
rfemur -12.9171 4.80868 25.231
rtibia 29.5691
rfoot -39.1658 -11.9543
rtoes 3.97424
lfemur -11.7794 2.29908 -13.6271
ltibia 29.2413
lfoot -36.5589 0.706645
ltoes -4.66931
3233
root 13.3236 26.5767 39.9465 -696.868 -176.908 4.00664
lowerback 21.4836 3.85877 -0.85022
upperback -2.7343 5.07539 1.24973
thorax -15.4822 2.40738 0.179528
lowerneck 4.92088 -6.18015 2.4635
upperneck -12.4995 -7.8635 4.85027
head -4.4563 -4.39907 1.5103
rclavicle 6.55989e-015 1.51076e-014
rhumerus 130.33 -35.4046 -81.33
rradius 106.165
rwrist 10.431
rhand -31.7737 -19.1345
rfingers 7.12502
rthumb -5.03022 -409.055
lclavicle 6.55989e-015 1.51076e-014
lhumerus 128.457 11.2881 84.6687
lradius 107.419
lwrist -28.7165
lhand -13.1214 0.593595
lfingers 7.12502
lthumb 12.9762 30.1701
rfemur -12.8658 4.84044 25.2153
rtibia 29.5846
rfoot -39.088 -11.9364
rtoes 5.81294
lfemur -11.7343 2.29946 -13.6452
ltibia 29.2516
lfoot -36.5391 0.721623
ltoes -4.73481
3234
root 13.3258 26.5784 39.9512 -696.957 -176.918 3.98593
lowerback 21.6088 3.91052 -0.944082
upperback -2.73174 5.12034 1.26441
thorax -15.5657 2.43456 0.225991
lowerneck 4.9082 -6.16878 2.47779
upperneck -12.4811 -7.84844 4.83693
head -4.44992 -4.39064 1.50228
rclavicle 4.55217e-014 -7.15625e-015
rhumerus 130.168 -35.4501 -81.1973
rradius 106.227
rwrist 10.5719
rhand -31.741 -19.319
rfingers 7.12502
rthumb -4.99864 -409.24
lclavicle 4.55217e-014 -7.15625e-015
lhumerus 128.384 11.2464 84.6815
lradius 107.386
lwrist -28.703
lhand -13.1555 0.618253
lfingers 7.12502
lthumb 12.9433 30.1968
rfemur -12.7909 4.8504 25.2029
rtibia 29.6135
rfoot -39.2648 -11.6968
rtoes 2.47529
lfemur -11.6446 2.33866 -13.6518
ltibia 29.2485
lfoot -36.5267 0.643351
ltoes -4.45585
